# xmcd CD database file
#
# Track frame offsets:
#	150
#	20398
#	37051
#	53024
#	71546
#	89960
#	100471
#	119943
#	136670
#	153033
#	173087
#
# Disc length: 2549 seconds
#
# Revision: 0
# Processed by: cddbd v1.5.1PL0 Copyright (c) Steve Scherf et al.
# Submitted via: CDex 1.40Release
#
DISCID=9609f30b
DTITLE=Buddy Jewell - Buddy Jewell
DYEAR=2003
DGENRE=Country
TTITLE0=I Wanna Thank Everyone
TTITLE1=Lacey's Song
TTITLE2=Sweet Southern Comfort
TTITLE3=I Start Loving You Again
TTITLE4=Abilene On Her Mind
TTITLE5=One In A Row 
TTITLE6=O'Reilly Luck
TTITLE7=Why We Said Goodbye
TTITLE8=One Step at a Time
TTITLE9=I Can Get By
TTITLE10=You Know How Women Are        
EXTD=YEAR: 2003 ID3G: 2
EXTT0=
EXTT1=
EXTT2=
EXTT3=
EXTT4=
EXTT5=
EXTT6=
EXTT7=
EXTT8=
EXTT9=
EXTT10=
PLAYORDER=
